<?xml version="1.0" encoding="UTF-8" standalone="no"?>
<!-- Generator: Adobe Illustrator 27.5.0, SVG Export Plug-In . SVG Version: 6.00 Build 0)  -->

<svg
   version="1.1"
   x="0px"
   y="0px"
   viewBox="0 0 201.60399 156.77872"
   xml:space="preserve"
   id="svg87"
   width="201.60399"
   height="156.77872"
   xmlns="http://www.w3.org/2000/svg"
   xmlns:svg="http://www.w3.org/2000/svg"><defs
   id="defs87"><linearGradient
     id="SVGID_00000008124290869970897080000000124052303300462472_"
     gradientUnits="userSpaceOnUse"
     x1="33.164299"
     y1="127.1536"
     x2="231.8665"
     y2="127.1536"
     gradientTransform="translate(31.574686,-398.83814)">
			<stop
   offset="0"
   style="stop-color:#007ab4;stop-opacity:1;"
   id="stop3" />
			<stop
   offset="1"
   style="stop-color:#4192c7;stop-opacity:1;"
   id="stop4" />
		</linearGradient><linearGradient
     id="SVGID_00000087408247373593876070000009956734903490914494_"
     gradientUnits="userSpaceOnUse"
     x1="32.169102"
     y1="132.1385"
     x2="219.62131"
     y2="132.1385"
     gradientTransform="translate(31.574686,-398.83814)">
			<stop
   offset="0"
   style="stop-color:#00D3CB"
   id="stop5" />
			<stop
   offset="1"
   style="stop-color:#4F4BE6"
   id="stop6" />
		</linearGradient><linearGradient
     id="SVGID_00000126320546958372856340000017001676100186330029_"
     gradientUnits="userSpaceOnUse"
     x1="75.676102"
     y1="63.040401"
     x2="187.0334"
     y2="174.39771"
     gradientTransform="translate(31.574686,-398.83814)">
			<stop
   offset="0"
   style="stop-color:#00b7d3;stop-opacity:1;"
   id="stop7" />
			<stop
   offset="1"
   style="stop-color:#271ab9;stop-opacity:1;"
   id="stop8" />
		</linearGradient><linearGradient
     id="SVGID_00000083792309686489708860000000269497390643361680_"
     gradientUnits="userSpaceOnUse"
     x1="23.1014"
     y1="26.1464"
     x2="201.76781"
     y2="139.4794"
     gradientTransform="translate(31.574686,-398.83814)">
			<stop
   offset="0"
   style="stop-color:#00D3CB"
   id="stop9" />
			<stop
   offset="1"
   style="stop-color:#193cc4;stop-opacity:1;"
   id="stop10" />
		</linearGradient><linearGradient
     id="SVGID_00000132798676596726108940000004973570167330884518_"
     gradientUnits="userSpaceOnUse"
     x1="13.0758"
     y1="41.950001"
     x2="191.74229"
     y2="155.2832"
     gradientTransform="translate(31.574686,-398.83814)">
			<stop
   offset="0"
   style="stop-color:#00D3CB"
   id="stop11" />
			<stop
   offset="1"
   style="stop-color:#4F4BE6"
   id="stop12" />
		</linearGradient><linearGradient
     id="SVGID_00000181071813434623462600000016382942423578949776_"
     gradientUnits="userSpaceOnUse"
     x1="36.292599"
     y1="5.3488998"
     x2="214.95959"
     y2="118.6824"
     gradientTransform="translate(31.574686,-398.83814)">
			<stop
   offset="0"
   style="stop-color:#00D3CB"
   id="stop13" />
			<stop
   offset="1"
   style="stop-color:#4F4BE6"
   id="stop14" />
		</linearGradient><linearGradient
     id="SVGID_00000165916162399382709590000000258787774018639006_"
     gradientUnits="userSpaceOnUse"
     x1="45.068901"
     y1="-8.4884005"
     x2="223.73669"
     y2="104.8456"
     gradientTransform="translate(31.574686,-398.83814)">
			<stop
   offset="0"
   style="stop-color:#00D3CB"
   id="stop15" />
			<stop
   offset="1"
   style="stop-color:#4F4BE6"
   id="stop16" />
		</linearGradient><linearGradient
     id="SVGID_00000176759289182881114900000006240920745604392861_"
     gradientUnits="userSpaceOnUse"
     x1="-28.1861"
     y1="106.9979"
     x2="150.48061"
     y2="220.33121"
     gradientTransform="translate(31.574686,-398.83814)">
			<stop
   offset="0"
   style="stop-color:#00D3CB"
   id="stop17" />
			<stop
   offset="1"
   style="stop-color:#4F4BE6"
   id="stop18" />
		</linearGradient></defs>

<g
   id="g100"
   transform="translate(-63.743287,347.4417)"><path
     style="fill:url(#SVGID_00000008124290869970897080000000124052303300462472_)"
     d="m 261.33169,-260.20314 c 6.874,-23.396 -3.01,-53.01 -30.28,-55.438 -21.079,-1.877 -42.645,9.857 -63.258,1.482 -14.563,-5.917 -23.51,-20.603 -38.538,-25.756 -33.045004,-11.33 -63.596004,18.621 -64.491004,50.659 -0.756,27.053 15.104,53.533 36.546004,69.42 27.915,20.683 69.852,22.882 102.562,13.572 26.336,-7.497 49.594,-27.18 57.459,-53.939 z"
     id="path4" /><path
     style="opacity:0.35;fill:url(#SVGID_00000087408247373593876070000009956734903490914494_)"
     d="m 246.34969,-327.35614 c -11.953,-17.212 -34.503,-18.677 -52.453,-10.793 -10.731,4.713 -18.303,13.874 -26.611,21.724 -8.161,7.711 -18.494,10.063 -29.267,12.024 -25.451,4.633 -56.150004,11.853 -69.569004,36.593 -13.233,24.398 3.407,48.095 25.481,59.372 27.852004,14.228 59.857004,3.889 88.871004,13.967 4.216,1.464 8.424,3.102 12.856,3.643 12.895,1.575 25.711,-8.476 29.375,-20.515 2.476,-8.136 1.28,-16.665 1.236,-25.008 -0.049,-9.231 2.227,-17.473 5.825,-25.937 5.628,-13.239 13.414,-25.859 17.581,-39.646 2.662,-8.805 1.997,-17.76 -3.325,-25.424 z"
     id="path6" /><path
     style="fill:url(#SVGID_00000126320546958372856340000017001676100186330029_)"
     d="m 254.14669,-286.71814 c 0.608,-22.437 -15.16,-46.461 -39.997,-42.201 -19.199,3.293 -35.625,18.812 -55.94,16.214 -14.352,-1.836 -25.771,-12.797 -40.356,-13.843 -32.072004,-2.301 -52.204004,31.544 -45.457004,60.262 5.697,24.25 26.045,44.078 48.865004,53.166 29.709,11.831 67.544,3.914 94.458,-12.073 21.668,-12.872 37.729,-35.862 38.427,-61.525 z"
     id="path8" /><path
     style="fill:url(#SVGID_00000083792309686489708860000000269497390643361680_)"
     d="m 259.72469,-264.10614 c -0.017,0.002 -0.035,0.004 -0.052,0.007 -2.933,0.39 -4.278,3.829 -4.919,6.318 -0.832,3.233 -1.111,6.668 -3.121,9.462 -2.302,3.201 -5.651,5.517 -8.037,8.664 -1.055,1.391 -1.965,3.262 -2.201,4.998 -0.552,4.076 3.193,5.456 6.493,4.176 5.693,-2.209 10.44,-8.187 13.333,-13.342 2.561,-4.564 5.333,-11.414 3.572,-16.694 -0.674,-2.021 -2.792,-3.86 -5.068,-3.589 z"
     id="path10" /><path
     style="fill:url(#SVGID_00000132798676596726108940000004973570167330884518_)"
     d="m 103.78869,-335.03314 c 0.044,-0.674 -0.062,-1.365 -0.355,-2.044 -1.426,-3.306 -6.634004,-3.497 -9.665004,-3.484 -7.896,0.033 -16.692,1.683 -21.583,8.506 -1.609,2.245 -2.479,5.173 -1.691,7.821 1.159,3.898 5.558,6.046 9.423,5.487 4.546,-0.658 6.999,-6.627 11.345,-8.451 4.104,-1.723 12.142004,-1.894 12.526004,-7.835 z"
     id="path12" /><path
     style="fill:url(#SVGID_00000181071813434623462600000016382942423578949776_)"
     d="m 154.11769,-332.50414 c -0.215,-3.931 2.564,-7.736 6.246,-8.996 8.033,-2.749 16.356,6.577 11.76,14.029 -5.322,8.628 -17.571,2.903 -18.006,-5.033 z"
     id="path14" /><path
     style="fill:url(#SVGID_00000165916162399382709590000000258787774018639006_)"
     d="m 173.52569,-342.80714 c -0.105,-1.92 1.252,-3.778 3.051,-4.394 3.924,-1.343 7.989,3.212 5.744,6.852 -2.599,4.215 -8.582,1.418 -8.795,-2.458 z"
     id="path16" /><path
     style="fill:url(#SVGID_00000176759289182881114900000006240920745604392861_)"
     d="m 75.587686,-239.76814 c -0.215,-3.931 2.564,-7.736 6.246,-8.996 8.033,-2.749 16.356,6.577 11.76,14.028 -5.322,8.629 -17.572,2.903 -18.006,-5.032 z"
     id="path18" /></g>

</svg>
