<?xml version="1.0" encoding="UTF-8" standalone="no"?>
<!-- Generator: Adobe Illustrator 27.5.0, SVG Export Plug-In . SVG Version: 6.00 Build 0)  -->

<svg
   version="1.1"
   x="0px"
   y="0px"
   viewBox="0 0 205.69727 182.42534"
   xml:space="preserve"
   id="svg87"
   width="205.69727"
   height="182.42534"
   xmlns:xlink="http://www.w3.org/1999/xlink"
   xmlns="http://www.w3.org/2000/svg"
   xmlns:svg="http://www.w3.org/2000/svg"><defs
   id="defs87"><linearGradient
     id="linearGradient95"><stop
       style="stop-color:#1878cf;stop-opacity:1;"
       offset="0"
       id="stop95" /><stop
       style="stop-color:#183bcf;stop-opacity:1;"
       offset="1"
       id="stop96" /></linearGradient><linearGradient
     id="linearGradient93"><stop
       style="stop-color:#029abb;stop-opacity:1;"
       offset="0"
       id="stop93" /><stop
       style="stop-color:#020285;stop-opacity:1;"
       offset="1"
       id="stop94" /></linearGradient><linearGradient
     id="SVGID_00000131327040630524251730000016985868559253812356_"
     gradientUnits="userSpaceOnUse"
     x1="27.5105"
     y1="338.539"
     x2="233.20799"
     y2="338.539"
     gradientTransform="translate(312.42321,-819.28001)">
			<stop
   offset="0"
   style="stop-color:#1f93df;stop-opacity:1;"
   id="stop35" />
			<stop
   offset="1"
   style="stop-color:#0061d6;stop-opacity:1;"
   id="stop36" />
		</linearGradient><linearGradient
     id="SVGID_00000053537931765507923890000005398147639968887477_"
     gradientUnits="userSpaceOnUse"
     x1="36.909401"
     y1="338.52481"
     x2="232.0546"
     y2="338.52481"
     gradientTransform="translate(312.42321,-819.28001)">
			<stop
   offset="0"
   style="stop-color:#23c8fe;stop-opacity:1;"
   id="stop37" />
			<stop
   offset="1"
   style="stop-color:#004af5;stop-opacity:1;"
   id="stop38" />
		</linearGradient><linearGradient
     id="SVGID_00000128474382781142004010000003863441570479205301_"
     gradientUnits="userSpaceOnUse"
     x1="195.3056"
     y1="270.55759"
     x2="83.305603"
     y2="411.89069"
     gradientTransform="translate(312.42321,-819.28001)">
			<stop
   offset="0"
   style="stop-color:#139fc8;stop-opacity:1;"
   id="stop45" />
			<stop
   offset="1"
   style="stop-color:#00a6f5;stop-opacity:1;"
   id="stop46" />
		</linearGradient><linearGradient
     xlink:href="#linearGradient93"
     id="linearGradient94"
     x1="347.53659"
     y1="-492.80542"
     x2="532.51337"
     y2="-492.80542"
     gradientUnits="userSpaceOnUse" /><linearGradient
     xlink:href="#linearGradient95"
     id="linearGradient96"
     x1="424.34241"
     y1="-557.27087"
     x2="463.03033"
     y2="-557.27087"
     gradientUnits="userSpaceOnUse" /></defs>

<g
   id="g99"
   transform="translate(-339.93362,574.92967)"><path
     style="fill:url(#SVGID_00000131327040630524251730000016985868559253812356_)"
     d="m 539.83321,-482.77101 c 5.785,-14.213 7.701,-29.598 3.629,-44.874 -2.849,-10.687 -11.552,-18.464 -22.598,-19.962 -11.353,-1.54 -20.104,5.046 -29.489,10.242 -8.731,4.834 -18.204,7.474 -28.219,6.329 -28.348,-3.241 -62.05,-18.155 -90.127,-7.001 -23.55,9.356 -35.709,36.557 -32.623,60.816 8.668,68.153 97.879,75.331 146.811,50.438 21.789,-11.083 42.787,-31.843 52.616,-55.988 z"
     id="path36" /><path
     style="opacity:0.33;fill:url(#SVGID_00000053537931765507923890000005398147639968887477_)"
     d="m 536.72221,-476.75601 c -12.142,-14.793 -32.915,-23.138 -40.079,-41.221 -5.128,-12.943 -2.16,-28.178 -11.152,-39.706 -8.723,-11.182 -25.044,-13.59 -37.927,-9.375 -14.721,4.816 -27.044,15.984 -34.183,29.628 -7.741,14.794 -6.081,32.397 -13.816,47.099 -6.709,12.751 -19.069,15.558 -30.086,23.124 -9.953,6.835 -18.926,17.326 -20.033,29.784 -0.822,9.245 2.889,18.542 8.889,25.623 17.985,21.224 48.166,22.655 73.089,15.202 18.923,-5.659 35.837,-16.11 54.021,-23.579 16.906,-6.944 39.699,-6.833 52.73,-20.986 9.904,-10.757 7.15,-25.112 -1.453,-35.593 z"
     id="path38" /><path
     style="fill:url(#linearGradient94);fill-opacity:1"
     d="m 532.51321,-522.76301 c -0.03,-14.905 -3.97,-29.439 -13.251,-41.671 -6.494,-8.558 -17.179,-12.346 -27.659,-9.627 -10.772,2.794 -16.214,11.934 -22.737,20.059 -6.069,7.559 -13.613,13.417 -23.036,16.074 -26.674,7.519 -62.456,6.515 -83.589,26.875 -17.725,17.076 -18.644,46.001 -6.944,66.671 32.872,58.071 115.702,31.693 150.526,-8.689 15.505,-17.984 26.74,-44.372 26.69,-69.692 z"
     id="path40" /><path
     style="fill:url(#linearGradient96);fill-opacity:1"
     d="m 462.20921,-565.13701 c -0.539,-1.349 -1.49,-2.593 -2.951,-3.649 -5.476,-3.956 -14.48,-3.736 -20.489,-1.242 -6.866,2.849 -14.709,10.13 -14.419,18.206 0.272,7.595 6.809,9.702 13.39,8.992 9.33,-1.007 29.606,-9.457 24.469,-22.307 z"
     id="path42" /><path
     style="fill:#02a5f1;fill-opacity:1"
     d="m 419.30521,-567.33401 c -0.517,-0.507 -1.201,-0.884 -2.08,-1.072 -3.294,-0.704 -7.357,1.207 -9.598,3.553 -2.559,2.68 -4.674,7.58 -2.918,11.206 1.652,3.41 5.057,3.057 7.917,1.41 4.055,-2.335 11.606,-10.268 6.679,-15.097 z"
     id="path44" /><path
     style="fill:url(#SVGID_00000128474382781142004010000003863441570479205301_)"
     d="m 435.76521,-416.97701 c -0.013,-2.32 -0.972,-4.588 -3.205,-6.318 -4.698,-3.641 -11.154,-1.208 -16.436,-0.776 -6.385,0.522 -12.95,0.196 -19.086,-1.765 -5.154,-1.647 -11.373,-5.339 -16.946,-3.605 -3.847,1.197 -6.387,4.426 -6.288,8.507 0.223,9.187 9.606,13.538 17.204,15.753 12.213,3.56 28.566,4.762 39.628,-2.705 3.079,-2.078 5.149,-5.641 5.129,-9.091 z"
     id="path46" /></g>

</svg>
