<?xml version="1.0" encoding="UTF-8" standalone="no"?>
<!-- Generator: Adobe Illustrator 27.5.0, SVG Export Plug-In . SVG Version: 6.00 Build 0)  -->

<svg
   version="1.1"
   x="0px"
   y="0px"
   viewBox="0 0 196.62228 185.02779"
   xml:space="preserve"
   id="svg87"
   width="196.62228"
   height="185.02779"
   xmlns="http://www.w3.org/2000/svg"
   xmlns:svg="http://www.w3.org/2000/svg"><defs
   id="defs87"><linearGradient
     id="SVGID_00000026871774989206358750000015788782298947866537_"
     gradientUnits="userSpaceOnUse"
     x1="422.0506"
     y1="455.74438"
     x2="291.5502"
     y2="291.24371"
     gradientTransform="translate(-212.71367,-819.28001)">
			<stop
   offset="0"
   style="stop-color:#1d94ff;stop-opacity:1;"
   id="stop47" />
			<stop
   offset="1"
   style="stop-color:#000000;stop-opacity:1;"
   id="stop48" />
		</linearGradient><linearGradient
     id="SVGID_00000157286341889196919840000001077030288326765696_"
     gradientUnits="userSpaceOnUse"
     x1="438.2514"
     y1="442.8924"
     x2="307.75089"
     y2="278.3916"
     gradientTransform="translate(-212.71367,-819.28001)">
			<stop
   offset="0"
   style="stop-color:#1deaff;stop-opacity:1;"
   id="stop49" />
			<stop
   offset="1"
   style="stop-color:#3581ff;stop-opacity:1;"
   id="stop50" />
		</linearGradient><linearGradient
     id="SVGID_00000027582318681249790240000010686458454605410192_"
     gradientUnits="userSpaceOnUse"
     x1="278.99011"
     y1="331.892"
     x2="472.08371"
     y2="331.892"
     gradientTransform="translate(-212.71367,-819.28001)">
			<stop
   offset="0"
   style="stop-color:#1a30e0;stop-opacity:1;"
   id="stop53" />
			<stop
   offset="1"
   style="stop-color:#68fcfb;stop-opacity:1;"
   id="stop54" />
		</linearGradient><linearGradient
     id="SVGID_00000057856372396658352060000002608469784629845399_"
     gradientUnits="userSpaceOnUse"
     x1="301.9888"
     y1="339.70041"
     x2="466.2933"
     y2="339.70041"
     gradientTransform="translate(-212.71367,-819.28001)">
			<stop
   offset="0"
   style="stop-color:#1d2eff;stop-opacity:1;"
   id="stop55" />
			<stop
   offset="1"
   style="stop-color:#0c83ff;stop-opacity:1;"
   id="stop56" />
		</linearGradient><linearGradient
     id="SVGID_00000010308240015405507840000003575182968364700044_"
     gradientUnits="userSpaceOnUse"
     x1="286.1077"
     y1="336.28259"
     x2="458.5"
     y2="336.28259"
     gradientTransform="translate(-212.71367,-819.28001)">
			<stop
   offset="0"
   style="stop-color:#1db7ff;stop-opacity:1;"
   id="stop57" />
			<stop
   offset="1"
   style="stop-color:#1e0cff;stop-opacity:1;"
   id="stop58" />
		</linearGradient><linearGradient
     id="SVGID_00000111878835670574904100000007204609476922896308_"
     gradientUnits="userSpaceOnUse"
     x1="422.7493"
     y1="455.19"
     x2="292.24939"
     y2="290.68991"
     gradientTransform="translate(-212.71367,-819.28001)">
			<stop
   offset="0"
   style="stop-color:#1DFF94"
   id="stop59" />
			<stop
   offset="1"
   style="stop-color:#62e0ff;stop-opacity:1;"
   id="stop60" />
		</linearGradient><linearGradient
     id="SVGID_00000036232505083040984500000006906071519492179593_"
     gradientUnits="userSpaceOnUse"
     x1="504.33801"
     y1="390.4649"
     x2="373.8382"
     y2="225.9649"
     gradientTransform="translate(-212.71367,-819.28001)">
			<stop
   offset="0"
   style="stop-color:#1d6aff;stop-opacity:1;"
   id="stop61" />
			<stop
   offset="1"
   style="stop-color:#0CFCFF"
   id="stop62" />
		</linearGradient></defs>

<g
   id="g98"
   transform="translate(-62.747968,570.45192)"><path
     style="fill:url(#SVGID_00000026871774989206358750000015788782298947866537_)"
     d="m 197.11333,-400.84401 c -0.371,-0.927 -1.024,-1.783 -2.028,-2.508 -3.764,-2.719 -9.953,-2.568 -14.083,-0.854 -4.719,1.958 -10.11,6.963 -9.911,12.513 0.187,5.22 4.68,6.668 9.203,6.18 6.414,-0.691 20.35,-6.499 16.819,-15.331 z"
     id="path48" /><path
     style="fill:url(#SVGID_00000157286341889196919840000001077030288326765696_)"
     d="m 92.613327,-565.84401 c -0.371,-0.927 -1.024,-1.783 -2.028,-2.508 -3.764,-2.719 -9.953,-2.568 -14.083,-0.854 -4.719,1.958 -10.11,6.963 -9.911,12.513 0.187,5.22 4.68,6.668 9.203,6.18 6.414,-0.691 20.35,-6.499 16.819,-15.331 z"
     id="path50" /><path
     style="fill:#3581ff;fill-opacity:1"
     d="m 225.78433,-539.73101 c 0.491,-0.344 0.902,-0.842 1.189,-1.529 1.076,-2.573 0.141,-4.171 -1.426,-6.352 -1.79,-2.492 -5.454,-6.96 -8.673,-6.085 -3.027,0.823 -3.26,3.648 -2.356,6.227 1.282,3.655 6.584,11.011 11.266,7.739 z"
     id="path52" /><path
     style="fill:url(#SVGID_00000027582318681249790240000010686458454605410192_)"
     d="m 254.01633,-449.09301 c -5.442,-9.102 -13.562,-17.669 -17.111,-26.397 -7.573,-18.628 -9.583,-39.424 -21.295,-56.275 -13.828,-19.896 -35.456,-33.662 -59.902,-35.197 -28.171,-1.768 -58.272003,10.03 -75.763003,32.604 -20.04,25.864 -17.498,62.567 4.034,86.859 30.602003,34.525 74.242003,17.411 112.909003,30.356 11.656,3.902 23.341,9.862 35.918,9.486 11.128,-0.333 22.262,-7.932 25.593,-18.756 2.495,-8.109 -0.124,-15.558 -4.383,-22.68 z"
     id="path54" /><path
     style="opacity:0.42;fill:url(#SVGID_00000057856372396658352060000002608469784629845399_)"
     d="m 180.67533,-436.53201 c 7.516,-12.083 19.711,-20.778 32.614,-26.366 10.066,-4.36 21.168,-5.935 31.184,-10.404 3.92,-1.749 7.645,-4.708 8.754,-8.855 1.058,-3.955 -0.451,-8.109 -2.132,-11.842 -15.351,-34.09 -49.334,-63.816 -88.769,-60.419 -32.642,2.812 -62.148,24.873 -70.732003,57.049 -10.259,38.457 14.352003,88.495 56.821003,92.627 4.053,0.394 8.146,0.345 12.193,-0.097 5.285,-0.578 10.407,-2.605 12.837,-7.645 2.732,-5.667 1.475,-12.434 4.082,-18.181 0.917,-2.019 1.972,-3.976 3.148,-5.867 z"
     id="path56" /><path
     style="fill:url(#SVGID_00000010308240015405507840000003575182968364700044_)"
     d="m 242.85633,-438.05101 c -3.79,-9.256 -10.152,-18.392 -12.229,-27.031 -4.432,-18.44 -3.37,-38.116 -11.913,-55.483 -10.086,-20.505 -28.31,-36.396 -50.89,-41.278 -26.02,-5.626 -55.755,1.126 -75.252003,19.707 -22.339,21.289 -25.15,55.874 -8.501,81.566 23.663003,36.515 66.773003,26.718 101.003003,44.248 10.319,5.284 20.373,12.492 32.154,13.916 10.424,1.26 21.879,-4.254 26.513,-13.877 3.472,-7.209 2.081,-14.525 -0.885,-21.768 z"
     id="path58" /><path
     style="fill:url(#SVGID_00000111878835670574904100000007204609476922896308_)"
     d="m 68.968327,-495.60801 c 2.093,1 4.553,1.126 7.083,-0.128 5.325,-2.64 5.952,-9.51 7.866,-14.452 2.315,-5.974 5.471,-11.739 9.912,-16.406 3.73,-3.92 9.765003,-7.906 10.634003,-13.677 0.6,-3.984 -1.198,-7.677 -4.913003,-9.369 -8.364,-3.806 -16.372,2.74 -21.679,8.611 -8.53,9.438 -16.744,23.629 -14.848,36.84 0.529,3.677 2.832,7.095 5.945,8.581 z"
     id="path60" /><path
     style="fill:url(#SVGID_00000036232505083040984500000006906071519492179593_)"
     d="m 212.81633,-529.03101 c 0.676,-0.257 1.302,-0.667 1.834,-1.253 2.587,-2.857 0.461,-8.015 -0.897,-10.962 -3.538,-7.677 -9.051,-15.514 -17.869,-17.249 -2.902,-0.571 -6.14,-0.118 -8.37,1.825 -3.283,2.859 -3.422,8.098 -1.161,11.615 2.659,4.137 9.564,3.876 13.27,7.3 3.5,3.234 7.235,10.989 13.193,8.724 z"
     id="path62" /></g>

</svg>
