<?xml version="1.0" encoding="UTF-8" standalone="no"?>
<!-- Generator: Adobe Illustrator 27.5.0, SVG Export Plug-In . SVG Version: 6.00 Build 0)  -->

<svg
   version="1.1"
   x="0px"
   y="0px"
   viewBox="0 0 206.92188 164.63582"
   xml:space="preserve"
   id="svg87"
   width="206.92188"
   height="164.63582"
   xmlns:xlink="http://www.w3.org/1999/xlink"
   xmlns="http://www.w3.org/2000/svg"
   xmlns:svg="http://www.w3.org/2000/svg"><defs
   id="defs87"><linearGradient
     id="linearGradient97"><stop
       style="stop-color:#00d5c1;stop-opacity:1;"
       offset="0"
       id="stop97" /><stop
       style="stop-color:#0058d5;stop-opacity:1;"
       offset="1"
       id="stop98" /></linearGradient><linearGradient
     id="linearGradient89"><stop
       style="stop-color:#6accda;stop-opacity:1;"
       offset="0"
       id="stop89" /><stop
       style="stop-color:#0384e7;stop-opacity:1;"
       offset="1"
       id="stop90" /></linearGradient><linearGradient
     id="SVGID_00000127745549633573957030000016524209646259079319_"
     gradientUnits="userSpaceOnUse"
     x1="308.66641"
     y1="61.143299"
     x2="436.90631"
     y2="189.38319"
     gradientTransform="translate(120.0366,-390.26983)">
			<stop
   offset="0"
   style="stop-color:#0f123d;stop-opacity:1;"
   id="stop23" />
			<stop
   offset="1"
   style="stop-color:#3d93fc;stop-opacity:1;"
   id="stop24" />
		</linearGradient><linearGradient
     xlink:href="#linearGradient89"
     id="linearGradient90"
     x1="-93.764725"
     y1="183.28664"
     x2="-56.107239"
     y2="183.28664"
     gradientUnits="userSpaceOnUse"
     gradientTransform="translate(631.49372,-370.5871)" /><linearGradient
     xlink:href="#linearGradient97"
     id="linearGradient98"
     x1="391.46509"
     y1="-318.69809"
     x2="423.17432"
     y2="-318.69809"
     gradientUnits="userSpaceOnUse" /></defs>

<g
   id="g101"
   transform="translate(-387.11402,341.73691)"><path
     style="fill:#2780a1;fill-opacity:1"
     d="m 556.5296,-314.12383 c -19.06,-5.971 -43.135,-1.069 -61.534,-10.269 -10.11,-5.052 -19.729,-11.24 -30.444,-14.835 -27.663,-9.281 -55.313,8.492 -69.395,31.856 -13.475,22.36 -11.284,55.712 16.295,65.635 21.318,7.67 46.838,1.377 65.909,15.65 13.473,10.084 18.748,27.721 32.911,37.14 31.141,20.71 70.915,-2.007 80.545,-34.94 7.533,-25.759 0.95,-56.142 -15.298,-77.326 -5.21,-6.793 -11.737,-10.639 -18.989,-12.911 z"
     id="path20" /><path
     style="opacity:0.4;fill:#007dd1;fill-opacity:1"
     d="m 565.3606,-325.78783 c -2.62,-1.708 -5.261,-3.228 -7.848,-4.534 -26.746,-13.501 -60.347,-13.953 -87.146,-0.373 -26.208,13.28 -43.031,38.502 -53.88,65.031 -7.4,18.095 -18.793,47.349 3.224,60.289 12.158,7.145 29.163,7.582 42.147,2.497 10.856,-4.252 18.751,-13.053 27.326,-20.521 8.423,-7.335 18.787,-9.257 29.574,-10.772 25.484,-3.579 56.287,-9.518 70.624,-33.569 13.472,-22.6 -4.693,-45.445 -24.021,-58.048 z"
     id="path22" /><path
     style="fill:url(#SVGID_00000127745549633573957030000016524209646259079319_)"
     d="m 559.7156,-307.70683 c -9.404,-3.101 -19.274,-2.281 -29.641,-0.572 -8.775,1.446 -17.582,1.485 -26.158,-1.124 -26.437,-8.045 -46.829,-33.01 -75.899,-16.118 -15.353,8.922 -27.687,25.807 -32.624,42.743 -6.725,23.069 3.077,52.231 29.954,54.566 20.776,1.805 42.002,-9.803 62.333,-1.593 14.363,5.8 23.21,20.253 38.03,25.299 32.586,11.096 62.628,-18.482 63.444,-50.054 0.462,-17.892 -3.823,-37.093 -19.247,-47.979 -3.335,-2.355 -6.732,-4.027 -10.192,-5.168 z"
     id="path24" /><path
     style="fill:url(#linearGradient98);fill-opacity:1"
     d="m 395.7606,-302.89183 c 0.018,0.003 0.037,0.005 0.056,0.007 3.143,0.393 5.471,-2.803 6.811,-5.206 1.74,-3.121 2.962,-6.603 5.802,-8.951 3.253,-2.689 7.35,-4.178 10.676,-6.788 1.471,-1.154 2.921,-2.844 3.637,-4.578 1.679,-4.071 -1.825,-6.517 -5.589,-6.088 -6.496,0.741 -13.035,5.642 -17.432,10.194 -3.892,4.031 -8.623,10.371 -8.234,16.317 0.148,2.276 1.843,4.755 4.273,5.093 z"
     id="path26" /><path
     style="fill:url(#linearGradient90);fill-opacity:1"
     d="m 537.9716,-187.08083 c -0.228,0.686 -0.306,1.431 -0.188,2.213 0.578,3.81 5.92,5.423 9.062,6.233 8.186,2.111 17.743,2.792 24.661,-2.945 2.276,-1.888 3.972,-4.684 3.876,-7.64 -0.141,-4.351 -4.113,-7.77 -8.267,-8.241 -4.887,-0.554 -9.048,4.961 -14.044,5.669 -4.719,0.668 -13.089,-1.338 -15.1,4.711 z"
     id="path28" /><path
     style="fill:#007dd2;fill-opacity:0.4"
     d="m 486.5396,-203.37383 c -0.846,4.13 -4.756,7.314 -8.912,7.619 -9.066,0.664 -15.151,-11.254 -8.367,-17.722 7.856,-7.489 18.985,1.768 17.279,10.103 z"
     id="path30" /><path
     style="fill:#2780a1;fill-opacity:1"
     d="m 463.6426,-197.97683 c -0.413,2.017 -2.323,3.572 -4.353,3.721 -4.428,0.324 -7.4,-5.497 -4.087,-8.656 3.838,-3.658 9.273,0.863 8.44,4.935 z"
     id="path32" /><path
     style="fill:#005a96;fill-opacity:1"
     d="m 593.0546,-278.07183 c -0.846,4.13 -4.756,7.314 -8.912,7.619 -9.065,0.664 -15.151,-11.254 -8.367,-17.722 7.855,-7.489 18.985,1.768 17.279,10.103 z"
     id="path34" /></g>

</svg>
